# xmcd
#
# Track frame offsets:
#	150
#	12345
#	22973
#	33826
#	46824
#	57654
#	69212
#	81790
#	92163
#	103353
#	112638
#	123123
#
# Disc length: 1792 seconds
#
# Revision: 1
# Processed by: cddbd v1.5.2PL0 Copyright (c) Steve Scherf et al.
# Submitted via: audiograbber 1.83.01
#
DISCID=8b06fe0c
DTITLE=Webb Pierce - Sands Of Gold
DYEAR=1964
DGENRE=Country
TTITLE0=Please Help Me, I'm Falling
TTITLE1=Sands Of Gold
TTITLE2=Blue Mood
TTITLE3=Don't Let Me Cross Over
TTITLE4=Roses Are Red (My Love)
TTITLE5=My Love For You
TTITLE6=Detroit City
TTITLE7=Those Wonderful Years
TTITLE8=Nobody's Darlin' But Mine
TTITLE9=If The Back Door Could Talk
TTITLE10=True Love Never Dies
TTITLE11=The Smile Of A Clown
EXTD=
EXTT0=
EXTT1=
EXTT2=
EXTT3=
EXTT4=
EXTT5=
EXTT6=
EXTT7=
EXTT8=
EXTT9=
EXTT10=
EXTT11=
PLAYORDER=
